<svg id="Capa_1" enable-background="new 0 0 512 512" height="512" viewBox="0 0 512 512" width="512" xmlns="http://www.w3.org/2000/svg" xmlns:xlink="http://www.w3.org/1999/xlink"><linearGradient id="SVGID_1_" gradientUnits="userSpaceOnUse" x1="74.981" x2="437.019" y1="74.981" y2="437.019"><stop offset="0" stop-color="#38afb0"/><stop offset="1" stop-color="#4598a1"/></linearGradient><linearGradient id="SVGID_2_" gradientUnits="userSpaceOnUse" x1="287.761" x2="421.039" y1="338.519" y2="338.519"><stop offset="0" stop-color="#ff5456"/><stop offset="1" stop-color="#fa2036"/></linearGradient><linearGradient id="SVGID_3_" gradientUnits="userSpaceOnUse" x1="113.052" x2="246.33" y1="157.6" y2="157.6"><stop offset="0" stop-color="#cdc8fa"/><stop offset="1" stop-color="#c8a6ff"/></linearGradient><linearGradient id="SVGID_4_" gradientUnits="userSpaceOnUse" x1="116.95" x2="268.42" y1="345.303" y2="345.303"><stop offset="0" stop-color="#ffeaa6"/><stop offset="1" stop-color="#ffd959"/></linearGradient><linearGradient id="SVGID_5_" gradientUnits="userSpaceOnUse" x1="90.961" x2="242.432" y1="319.315" y2="319.315"><stop offset="0" stop-color="#fff7e0"/><stop offset="1" stop-color="#ffeaa6"/></linearGradient><g><circle cx="256" cy="256" fill="url(#SVGID_1_)" r="256"/><g><path d="m287.76 256v98.4c0 36.804 29.835 66.639 66.639 66.639s66.639-29.835 66.639-66.639v-98.4z" fill="url(#SVGID_2_)"/><path d="m354.4 90.961c-36.804 0-66.639 29.835-66.639 66.639v98.4h133.278v-98.4c0-36.803-29.836-66.639-66.639-66.639z" fill="#ffeaa6"/><circle cx="179.691" cy="157.6" fill="url(#SVGID_3_)" r="66.639"/><path d="m242.432 269.568-62.741 62.741v.174l-30.265-15.837-32.476 78.404c17.325 17.326 40.033 25.988 62.741 25.988s45.416-8.663 62.741-25.988c34.651-34.651 34.651-90.831 0-125.482z" fill="url(#SVGID_4_)"/><path d="m242.432 269.568c-17.326-17.325-40.033-25.988-62.741-25.988-22.708 0-45.416 8.663-62.741 25.988-34.651 34.651-34.651 90.831 0 125.482z" fill="url(#SVGID_5_)"/></g></g></svg>