<svg width="376" height="136" viewBox="0 0 376 136" fill="none" xmlns="http://www.w3.org/2000/svg">
<rect x="4" y="4" width="368" height="128" stroke="#169AE4" stroke-width="8" stroke-linejoin="round"/>
<path d="M40.4171 86L40.4171 49.184L72.3451 49.184V86H63.4531L63.4531 56.724H49.3091L49.3091 86H40.4171ZM79.4569 98.48V60.104H87.5689V63.276H87.7249C88.5569 62.132 89.6836 61.196 91.1049 60.468C92.5609 59.74 94.1902 59.376 95.9929 59.376C99.6329 59.376 102.58 60.7107 104.833 63.38C107.121 66.0147 108.265 69.204 108.265 72.948C108.265 76.7613 107.138 80.02 104.885 82.724C102.666 85.3933 99.6849 86.728 95.9409 86.728C94.3462 86.728 92.8382 86.416 91.4169 85.792C89.9956 85.1333 88.8862 84.2493 88.0889 83.14H87.9849V98.48H79.4569ZM93.9129 79.656C95.8196 79.656 97.3102 78.9973 98.3849 77.68C99.4596 76.3627 99.9969 74.7853 99.9969 72.948C99.9969 71.1453 99.4596 69.6027 98.3849 68.32C97.3102 67.0027 95.8196 66.344 93.9129 66.344C92.0756 66.344 90.5676 67.02 89.3889 68.372C88.2449 69.724 87.6729 71.2667 87.6729 73C87.6729 74.768 88.2449 76.328 89.3889 77.68C90.5676 78.9973 92.0756 79.656 93.9129 79.656ZM126.581 86.832C122.525 86.832 119.127 85.6187 116.389 83.192C113.685 80.7307 112.333 77.3853 112.333 73.156C112.333 68.996 113.65 65.6507 116.285 63.12C118.954 60.5547 122.299 59.272 126.321 59.272C130.203 59.272 133.341 60.5373 135.733 63.068C138.125 65.564 139.321 68.996 139.321 73.364C139.321 74.3 139.303 74.976 139.269 75.392L120.497 75.392C120.635 76.7787 121.311 77.94 122.525 78.876C123.738 79.812 125.125 80.28 126.685 80.28C129.181 80.28 131.087 79.3787 132.405 77.576L138.333 81.32C135.802 84.9947 131.885 86.832 126.581 86.832ZM120.497 70.088H131.469C131.469 68.6667 131.018 67.488 130.117 66.552C129.25 65.616 128.002 65.148 126.373 65.148C124.778 65.148 123.426 65.6333 122.317 66.604C121.207 67.5747 120.601 68.736 120.497 70.088ZM144.609 86V60.104H170.193V86H161.613V66.656H153.189V86H144.609ZM184.655 86.624C183.13 86.624 181.691 86.3987 180.339 85.948C179.022 85.4627 177.843 84.5787 176.803 83.296C175.763 82.0133 175.243 80.4187 175.243 78.512C175.243 72.688 180.79 69.776 191.883 69.776V69.36C191.883 68.1467 191.45 67.228 190.583 66.604C189.717 65.9453 188.59 65.616 187.203 65.616C184.846 65.616 182.714 66.5 180.807 68.268L176.491 63.64C179.577 60.728 183.425 59.272 188.035 59.272C192.299 59.272 195.35 60.364 197.187 62.548C199.025 64.6973 199.943 68.164 199.943 72.948V86H192.143V83.244H191.987C191.363 84.284 190.375 85.116 189.023 85.74C187.671 86.3293 186.215 86.624 184.655 86.624ZM186.787 80.904C188.486 80.904 189.803 80.436 190.739 79.5C191.675 78.5293 192.143 77.2293 192.143 75.6V74.716H191.051C185.747 74.716 183.095 75.8947 183.095 78.252C183.095 79.1533 183.459 79.8293 184.187 80.28C184.915 80.696 185.782 80.904 186.787 80.904ZM206.308 98.48V60.104H214.42V63.276H214.576C215.408 62.132 216.535 61.196 217.956 60.468C219.412 59.74 221.042 59.376 222.844 59.376C226.484 59.376 229.431 60.7107 231.684 63.38C233.972 66.0147 235.116 69.204 235.116 72.948C235.116 76.7613 233.99 80.02 231.736 82.724C229.518 85.3933 226.536 86.728 222.792 86.728C221.198 86.728 219.69 86.416 218.268 85.792C216.847 85.1333 215.738 84.2493 214.94 83.14H214.836V98.48H206.308ZM220.764 79.656C222.671 79.656 224.162 78.9973 225.236 77.68C226.311 76.3627 226.848 74.7853 226.848 72.948C226.848 71.1453 226.311 69.6027 225.236 68.32C224.162 67.0027 222.671 66.344 220.764 66.344C218.927 66.344 217.419 67.02 216.24 68.372C215.096 69.724 214.524 71.2667 214.524 73C214.524 74.768 215.096 76.328 216.24 77.68C217.419 78.9973 218.927 79.656 220.764 79.656ZM248.284 86.624C246.759 86.624 245.32 86.3987 243.968 85.948C242.651 85.4627 241.472 84.5787 240.432 83.296C239.392 82.0133 238.872 80.4187 238.872 78.512C238.872 72.688 244.419 69.776 255.512 69.776V69.36C255.512 68.1467 255.079 67.228 254.212 66.604C253.346 65.9453 252.219 65.616 250.832 65.616C248.475 65.616 246.343 66.5 244.436 68.268L240.12 63.64C243.206 60.728 247.054 59.272 251.664 59.272C255.928 59.272 258.979 60.364 260.816 62.548C262.654 64.6973 263.572 68.164 263.572 72.948V86H255.772V83.244H255.616C254.992 84.284 254.004 85.116 252.652 85.74C251.3 86.3293 249.844 86.624 248.284 86.624ZM250.416 80.904C252.115 80.904 253.432 80.436 254.368 79.5C255.304 78.5293 255.772 77.2293 255.772 75.6V74.716H254.68C249.376 74.716 246.724 75.8947 246.724 78.252C246.724 79.1533 247.088 79.8293 247.816 80.28C248.544 80.696 249.411 80.904 250.416 80.904ZM275.397 86V66.656H267.649V60.104H291.725V66.656H283.977V86H275.397ZM335.922 86H309.298V78.72L323.65 65.72C325.66 63.8133 326.666 61.924 326.666 60.052C326.666 58.7347 326.25 57.6773 325.418 56.88C324.586 56.048 323.476 55.632 322.09 55.632C320.668 55.632 319.49 56.152 318.554 57.192C317.618 58.1973 317.063 59.532 316.89 61.196L308.518 60.052C308.934 56.412 310.459 53.5347 313.094 51.42C315.728 49.2707 318.883 48.196 322.558 48.196C326.232 48.196 329.37 49.1667 331.97 51.108C334.57 53.0493 335.87 55.84 335.87 59.48C335.87 61.8373 335.315 63.848 334.206 65.512C333.131 67.176 331.536 68.944 329.422 70.816L320.894 78.408H335.922V86Z" fill="#169AE4"/>
</svg>
