<svg width="377" height="137" viewBox="0 0 377 137" fill="none" xmlns="http://www.w3.org/2000/svg">
<rect x="4.88477" y="4.96191" width="368" height="128" stroke="url(#paint0_linear)" stroke-width="8" stroke-linejoin="round"/>
<path d="M41.3019 86.9619L41.3019 50.1459L73.2299 50.1459V86.9619H64.3379V57.6859H50.1939L50.1939 86.9619H41.3019ZM80.3417 99.4419V61.0659H88.4537V64.2379H88.6097C89.4417 63.0939 90.5683 62.1579 91.9897 61.4299C93.4457 60.7019 95.075 60.3379 96.8777 60.3379C100.518 60.3379 103.464 61.6726 105.718 64.3419C108.006 66.9766 109.15 70.1659 109.15 73.9099C109.15 77.7232 108.023 80.9819 105.77 83.6859C103.551 86.3552 100.57 87.6899 96.8257 87.6899C95.231 87.6899 93.723 87.3779 92.3017 86.7539C90.8803 86.0952 89.771 85.2112 88.9737 84.1019H88.8697V99.4419H80.3417ZM94.7977 80.6179C96.7043 80.6179 98.195 79.9592 99.2697 78.6419C100.344 77.3246 100.882 75.7472 100.882 73.9099C100.882 72.1072 100.344 70.5646 99.2697 69.2819C98.195 67.9646 96.7043 67.3059 94.7977 67.3059C92.9603 67.3059 91.4523 67.9819 90.2737 69.3339C89.1297 70.6859 88.5577 72.2286 88.5577 73.9619C88.5577 75.7299 89.1297 77.2899 90.2737 78.6419C91.4523 79.9592 92.9603 80.6179 94.7977 80.6179ZM127.465 87.7939C123.409 87.7939 120.012 86.5806 117.273 84.1539C114.569 81.6926 113.217 78.3472 113.217 74.1179C113.217 69.9579 114.535 66.6126 117.169 64.0819C119.839 61.5166 123.184 60.2339 127.205 60.2339C131.088 60.2339 134.225 61.4992 136.617 64.0299C139.009 66.5259 140.205 69.9579 140.205 74.3259C140.205 75.2619 140.188 75.9379 140.153 76.3539L121.381 76.3539C121.52 77.7406 122.196 78.9019 123.409 79.8379C124.623 80.7739 126.009 81.2419 127.569 81.2419C130.065 81.2419 131.972 80.3406 133.289 78.5379L139.217 82.2819C136.687 85.9566 132.769 87.7939 127.465 87.7939ZM121.381 71.0499H132.353C132.353 69.6286 131.903 68.4499 131.001 67.5139C130.135 66.5779 128.887 66.1099 127.257 66.1099C125.663 66.1099 124.311 66.5952 123.201 67.5659C122.092 68.5366 121.485 69.6979 121.381 71.0499ZM145.494 86.9619V61.0659H171.078V86.9619H162.498V67.6179H154.074V86.9619H145.494ZM185.54 87.5859C184.015 87.5859 182.576 87.3606 181.224 86.9099C179.907 86.4246 178.728 85.5406 177.688 84.2579C176.648 82.9752 176.128 81.3806 176.128 79.4739C176.128 73.6499 181.675 70.7379 192.768 70.7379V70.3219C192.768 69.1086 192.335 68.1899 191.468 67.5659C190.601 66.9072 189.475 66.5779 188.088 66.5779C185.731 66.5779 183.599 67.4619 181.692 69.2299L177.376 64.6019C180.461 61.6899 184.309 60.2339 188.92 60.2339C193.184 60.2339 196.235 61.3259 198.072 63.5099C199.909 65.6592 200.828 69.1259 200.828 73.9099V86.9619H193.028V84.2059H192.872C192.248 85.2459 191.26 86.0779 189.908 86.7019C188.556 87.2912 187.1 87.5859 185.54 87.5859ZM187.672 81.8659C189.371 81.8659 190.688 81.3979 191.624 80.4619C192.56 79.4912 193.028 78.1912 193.028 76.5619V75.6779H191.936C186.632 75.6779 183.98 76.8566 183.98 79.2139C183.98 80.1152 184.344 80.7912 185.072 81.2419C185.8 81.6579 186.667 81.8659 187.672 81.8659ZM207.193 99.4419V61.0659H215.305V64.2379H215.461C216.293 63.0939 217.42 62.1579 218.841 61.4299C220.297 60.7019 221.927 60.3379 223.729 60.3379C227.369 60.3379 230.316 61.6726 232.569 64.3419C234.857 66.9766 236.001 70.1659 236.001 73.9099C236.001 77.7232 234.875 80.9819 232.621 83.6859C230.403 86.3552 227.421 87.6899 223.677 87.6899C222.083 87.6899 220.575 87.3779 219.153 86.7539C217.732 86.0952 216.623 85.2112 215.825 84.1019H215.721V99.4419H207.193ZM221.649 80.6179C223.556 80.6179 225.047 79.9592 226.121 78.6419C227.196 77.3246 227.733 75.7472 227.733 73.9099C227.733 72.1072 227.196 70.5646 226.121 69.2819C225.047 67.9646 223.556 67.3059 221.649 67.3059C219.812 67.3059 218.304 67.9819 217.125 69.3339C215.981 70.6859 215.409 72.2286 215.409 73.9619C215.409 75.7299 215.981 77.2899 217.125 78.6419C218.304 79.9592 219.812 80.6179 221.649 80.6179ZM249.169 87.5859C247.644 87.5859 246.205 87.3606 244.853 86.9099C243.536 86.4246 242.357 85.5406 241.317 84.2579C240.277 82.9752 239.757 81.3806 239.757 79.4739C239.757 73.6499 245.304 70.7379 256.397 70.7379V70.3219C256.397 69.1086 255.964 68.1899 255.097 67.5659C254.23 66.9072 253.104 66.5779 251.717 66.5779C249.36 66.5779 247.228 67.4619 245.321 69.2299L241.005 64.6019C244.09 61.6899 247.938 60.2339 252.549 60.2339C256.813 60.2339 259.864 61.3259 261.701 63.5099C263.538 65.6592 264.457 69.1259 264.457 73.9099V86.9619H256.657V84.2059H256.501C255.877 85.2459 254.889 86.0779 253.537 86.7019C252.185 87.2912 250.729 87.5859 249.169 87.5859ZM251.301 81.8659C253 81.8659 254.317 81.3979 255.253 80.4619C256.189 79.4912 256.657 78.1912 256.657 76.5619V75.6779H255.565C250.261 75.6779 247.609 76.8566 247.609 79.2139C247.609 80.1152 247.973 80.7912 248.701 81.2419C249.429 81.6579 250.296 81.8659 251.301 81.8659ZM276.282 86.9619V67.6179H268.534V61.0659H292.61V67.6179H284.862V86.9619H276.282ZM336.962 76.2499C336.962 78.8152 336.252 81.0166 334.83 82.8539C333.444 84.6566 331.728 85.9566 329.682 86.7539C327.637 87.5512 325.436 87.9499 323.078 87.9499C319.508 87.9499 316.388 87.1352 313.718 85.5059C311.049 83.8766 309.246 81.4326 308.31 78.1739L316.422 76.0419C316.769 77.3246 317.497 78.4166 318.606 79.3179C319.716 80.1846 321.068 80.6179 322.662 80.6179C324.084 80.6179 325.332 80.2366 326.406 79.4739C327.481 78.7112 328.018 77.5326 328.018 75.9379C328.018 74.2046 327.29 72.9739 325.834 72.2459C324.413 71.4832 322.645 71.1019 320.53 71.1019H318.19V64.7059H320.738C325.037 64.7059 327.186 63.2499 327.186 60.3379C327.186 59.0899 326.736 58.1019 325.834 57.3739C324.933 56.6459 323.841 56.2819 322.558 56.2819C321.31 56.2819 320.218 56.6632 319.282 57.4259C318.381 58.1539 317.792 59.1419 317.514 60.3899L309.402 58.5179C310.269 55.5366 311.968 53.2312 314.498 51.6019C317.029 49.9726 319.906 49.1579 323.13 49.1579C326.666 49.1579 329.7 50.0592 332.23 51.8619C334.796 53.6646 336.078 56.2299 336.078 59.5579C336.078 61.5339 335.506 63.2499 334.362 64.7059C333.218 66.1272 331.728 67.0806 329.89 67.5659V67.7219C331.97 68.2072 333.669 69.2472 334.986 70.8419C336.304 72.4019 336.962 74.2046 336.962 76.2499Z" fill="url(#paint1_linear)"/>
<path d="M41.3019 86.9619H40.3019V87.9619H41.3019V86.9619ZM41.3019 50.1459V49.1459H40.3019V50.1459H41.3019ZM73.2299 50.1459H74.2299V49.1459H73.2299V50.1459ZM73.2299 86.9619V87.9619H74.2299V86.9619H73.2299ZM64.3379 86.9619H63.3379V87.9619H64.3379V86.9619ZM64.3379 57.6859H65.3379V56.6859H64.3379V57.6859ZM50.1939 57.6859V56.6859H49.1939V57.6859H50.1939ZM50.1939 86.9619V87.9619H51.1939V86.9619H50.1939ZM42.3019 86.9619L42.3019 50.1459H40.3019V86.9619H42.3019ZM41.3019 51.1459L73.2299 51.1459V49.1459L41.3019 49.1459V51.1459ZM72.2299 50.1459V86.9619H74.2299V50.1459L72.2299 50.1459ZM73.2299 85.9619H64.3379V87.9619H73.2299V85.9619ZM65.3379 86.9619V57.6859H63.3379L63.3379 86.9619H65.3379ZM64.3379 56.6859H50.1939V58.6859H64.3379V56.6859ZM49.1939 57.6859L49.1939 86.9619H51.1939L51.1939 57.6859H49.1939ZM50.1939 85.9619H41.3019V87.9619H50.1939V85.9619ZM80.3417 99.4419H79.3417V100.442H80.3417V99.4419ZM80.3417 61.0659V60.0659H79.3417V61.0659H80.3417ZM88.4537 61.0659H89.4537V60.0659H88.4537V61.0659ZM88.4537 64.2379H87.4537V65.2379H88.4537V64.2379ZM88.6097 64.2379V65.2379H89.1189L89.4184 64.8261L88.6097 64.2379ZM91.9897 61.4299L91.5424 60.5354L91.5338 60.5399L91.9897 61.4299ZM105.718 64.3419L104.953 64.987L104.963 64.9976L105.718 64.3419ZM105.77 83.6859L105.001 83.0457L105.001 83.0467L105.77 83.6859ZM92.3017 86.7539L91.8812 87.6612L91.8904 87.6655L91.8997 87.6696L92.3017 86.7539ZM88.9737 84.1019L89.7857 83.5183L89.4864 83.1019H88.9737V84.1019ZM88.8697 84.1019V83.1019H87.8697V84.1019H88.8697ZM88.8697 99.4419V100.442H89.8697V99.4419H88.8697ZM99.2697 78.6419L100.045 79.274L99.2697 78.6419ZM99.2697 69.2819L98.4947 69.9141L98.5032 69.9241L99.2697 69.2819ZM90.2737 69.3339L89.5199 68.6768L89.5151 68.6823L89.5103 68.688L90.2737 69.3339ZM90.2737 78.6419L89.5103 79.2879L89.5192 79.2984L89.5284 79.3087L90.2737 78.6419ZM81.3417 99.4419V61.0659H79.3417V99.4419H81.3417ZM80.3417 62.0659H88.4537V60.0659H80.3417V62.0659ZM87.4537 61.0659V64.2379H89.4537V61.0659H87.4537ZM88.4537 65.2379H88.6097V63.2379H88.4537V65.2379ZM89.4184 64.8261C90.1468 63.8245 91.1457 62.9857 92.4455 62.32L91.5338 60.5399C89.991 61.3301 88.7365 62.3633 87.8009 63.6497L89.4184 64.8261ZM92.4369 62.3243C93.7397 61.673 95.2134 61.3379 96.8777 61.3379V59.3379C94.9367 59.3379 93.1517 59.7309 91.5425 60.5355L92.4369 62.3243ZM96.8777 61.3379C100.237 61.3379 102.899 62.5533 104.954 64.987L106.482 63.6969C104.03 60.7918 100.798 59.3379 96.8777 59.3379V61.3379ZM104.963 64.9976C107.081 67.4365 108.15 70.3878 108.15 73.9099H110.15C110.15 69.944 108.931 66.5167 106.473 63.6862L104.963 64.9976ZM108.15 73.9099C108.15 77.5103 107.092 80.5369 105.001 83.0457L106.538 84.3261C108.954 81.4269 110.15 77.9362 110.15 73.9099H108.15ZM105.001 83.0467C102.988 85.4677 100.299 86.6899 96.8257 86.6899V88.6899C100.84 88.6899 104.114 87.2428 106.539 84.3251L105.001 83.0467ZM96.8257 86.6899C95.3655 86.6899 93.9948 86.4051 92.7037 85.8383L91.8997 87.6696C93.4512 88.3507 95.0965 88.6899 96.8257 88.6899V86.6899ZM92.7221 85.8466C91.4338 85.2496 90.4686 84.4684 89.7857 83.5183L88.1617 84.6855C89.0734 85.9541 90.3269 86.9409 91.8812 87.6612L92.7221 85.8466ZM88.9737 83.1019H88.8697V85.1019H88.9737V83.1019ZM87.8697 84.1019V99.4419H89.8697V84.1019H87.8697ZM88.8697 98.4419H80.3417V100.442H88.8697V98.4419ZM94.7977 81.6179C96.9635 81.6179 98.7553 80.8544 100.045 79.274L98.4948 78.0098C97.6347 79.0641 96.4452 79.6179 94.7977 79.6179V81.6179ZM100.045 79.274C101.277 77.7634 101.882 75.9577 101.882 73.9099H99.8817C99.8817 75.5368 99.4117 76.8858 98.4948 78.0098L100.045 79.274ZM101.882 73.9099C101.882 71.8919 101.274 70.1168 100.036 68.6397L98.5032 69.9241C99.4149 71.0124 99.8817 72.3226 99.8817 73.9099H101.882ZM100.045 68.6498C98.7553 67.0695 96.9635 66.3059 94.7977 66.3059V68.3059C96.4452 68.3059 97.6347 68.8597 98.4948 69.914L100.045 68.6498ZM94.7977 66.3059C92.6794 66.3059 90.8937 67.1009 89.5199 68.6768L91.0274 69.991C92.011 68.8629 93.2413 68.3059 94.7977 68.3059V66.3059ZM89.5103 68.688C88.2171 70.2162 87.5577 71.9865 87.5577 73.9619H89.5577C89.5577 72.4707 90.0422 71.1556 91.0371 69.9799L89.5103 68.688ZM87.5577 73.9619C87.5577 75.9669 88.2138 77.7556 89.5103 79.2879L91.0371 77.996C90.0455 76.8242 89.5577 75.4929 89.5577 73.9619H87.5577ZM89.5284 79.3087C90.9051 80.8474 92.6886 81.6179 94.7977 81.6179V79.6179C93.2321 79.6179 91.9995 79.0711 91.0189 77.9751L89.5284 79.3087ZM117.273 84.1539L116.6 84.8935L116.61 84.9024L117.273 84.1539ZM117.169 64.0819L117.862 64.8031L117.862 64.8029L117.169 64.0819ZM136.617 64.0299L135.891 64.7168L135.895 64.7218L136.617 64.0299ZM140.153 76.3539V77.3539H141.074L141.15 76.437L140.153 76.3539ZM121.381 76.3539V75.3539H120.276L120.386 76.4534L121.381 76.3539ZM123.409 79.8379L124.02 79.0461L123.409 79.8379ZM133.289 78.5379L133.823 77.6924L133.033 77.1934L132.482 77.9479L133.289 78.5379ZM139.217 82.2819L140.041 82.8491L140.631 81.9921L139.751 81.4364L139.217 82.2819ZM121.381 71.0499L120.384 70.9732L120.302 72.0499H121.381V71.0499ZM132.353 71.0499V72.0499H133.353V71.0499H132.353ZM131.001 67.5139L130.268 68.1933L130.274 68.2005L130.281 68.2076L131.001 67.5139ZM123.201 67.5659L122.543 66.8133L123.201 67.5659ZM127.465 86.7939C123.625 86.7939 120.472 85.6521 117.937 83.4055L116.61 84.9024C119.552 87.5091 123.194 88.7939 127.465 88.7939V86.7939ZM117.947 83.4144C115.484 81.1729 114.217 78.1142 114.217 74.1179H112.217C112.217 78.5803 113.655 82.2122 116.6 84.8934L117.947 83.4144ZM114.217 74.1179C114.217 70.1888 115.452 67.1184 117.862 64.8031L116.477 63.3607C113.618 66.1068 112.217 69.7271 112.217 74.1179H114.217ZM117.862 64.8029C120.329 62.4328 123.418 61.2339 127.205 61.2339V59.2339C122.95 59.2339 119.349 60.6003 116.477 63.3609L117.862 64.8029ZM127.205 61.2339C130.848 61.2339 133.71 62.41 135.891 64.7168L137.344 63.343C134.741 60.5885 131.328 59.2339 127.205 59.2339V61.2339ZM135.895 64.7218C138.065 66.986 139.205 70.1447 139.205 74.3259H141.205C141.205 69.7711 139.954 66.0658 137.339 63.338L135.895 64.7218ZM139.205 74.3259C139.205 75.2595 139.188 75.8996 139.157 76.2709L141.15 76.437C141.188 75.9762 141.205 75.2643 141.205 74.3259H139.205ZM140.153 75.3539L121.381 75.3539V77.3539L140.153 77.3539V75.3539ZM120.386 76.4534C120.555 78.1427 121.392 79.5442 122.799 80.6297L124.02 79.0461C123.001 78.2596 122.485 77.3384 122.376 76.2544L120.386 76.4534ZM122.799 80.6297C124.19 81.7033 125.793 82.2419 127.569 82.2419V80.2419C126.226 80.2419 125.055 79.8445 124.02 79.0461L122.799 80.6297ZM127.569 82.2419C130.341 82.2419 132.567 81.2214 134.097 79.1279L132.482 77.9479C131.377 79.4597 129.79 80.2419 127.569 80.2419V82.2419ZM132.755 79.3834L138.683 83.1274L139.751 81.4364L133.823 77.6924L132.755 79.3834ZM138.394 81.7147C136.087 85.0647 132.512 86.7939 127.465 86.7939V88.7939C133.027 88.7939 137.287 86.8485 140.041 82.8491L138.394 81.7147ZM121.381 72.0499H132.353V70.0499H121.381V72.0499ZM133.353 71.0499C133.353 69.3964 132.82 67.9609 131.722 66.8203L130.281 68.2076C130.985 68.9389 131.353 69.8607 131.353 71.0499H133.353ZM131.735 66.8345C130.63 65.6408 129.083 65.1099 127.257 65.1099V67.1099C128.69 67.1099 129.64 67.515 130.268 68.1933L131.735 66.8345ZM127.257 65.1099C125.442 65.1099 123.85 65.6696 122.543 66.8133L123.86 68.3185C124.771 67.5209 125.884 67.1099 127.257 67.1099V65.1099ZM122.543 66.8133C121.256 67.9398 120.51 69.3364 120.384 70.9732L122.379 71.1266C122.461 70.0595 122.929 69.1333 123.86 68.3185L122.543 66.8133ZM145.494 86.9619H144.494V87.9619H145.494V86.9619ZM145.494 61.0659V60.0659H144.494V61.0659H145.494ZM171.078 61.0659H172.078V60.0659H171.078V61.0659ZM171.078 86.9619V87.9619H172.078V86.9619H171.078ZM162.498 86.9619H161.498V87.9619H162.498V86.9619ZM162.498 67.6179H163.498V66.6179H162.498V67.6179ZM154.074 67.6179V66.6179H153.074V67.6179H154.074ZM154.074 86.9619V87.9619H155.074V86.9619H154.074ZM146.494 86.9619V61.0659H144.494V86.9619H146.494ZM145.494 62.0659H171.078V60.0659H145.494V62.0659ZM170.078 61.0659V86.9619H172.078V61.0659H170.078ZM171.078 85.9619H162.498V87.9619H171.078V85.9619ZM163.498 86.9619V67.6179H161.498V86.9619H163.498ZM162.498 66.6179H154.074V68.6179H162.498V66.6179ZM153.074 67.6179V86.9619H155.074V67.6179H153.074ZM154.074 85.9619H145.494V87.9619H154.074V85.9619ZM181.224 86.9099L180.878 87.8483L180.893 87.8537L180.908 87.8586L181.224 86.9099ZM192.768 70.7379V71.7379H193.768V70.7379H192.768ZM191.468 67.5659L190.863 68.3621L190.873 68.3699L190.884 68.3774L191.468 67.5659ZM181.692 69.2299L180.961 69.9119L181.641 70.6412L182.372 69.9632L181.692 69.2299ZM177.376 64.6019L176.69 63.8747L175.967 64.557L176.645 65.2839L177.376 64.6019ZM198.072 63.5099L197.307 64.1537L197.312 64.1597L198.072 63.5099ZM200.828 86.9619V87.9619H201.828V86.9619H200.828ZM193.028 86.9619H192.028V87.9619H193.028V86.9619ZM193.028 84.2059H194.028V83.2059H193.028V84.2059ZM192.872 84.2059V83.2059H192.306L192.015 83.6914L192.872 84.2059ZM189.908 86.7019L190.308 87.6186L190.317 87.6143L190.327 87.6099L189.908 86.7019ZM191.624 80.4619L192.331 81.169L192.338 81.1626L192.344 81.1561L191.624 80.4619ZM193.028 75.6779H194.028V74.6779H193.028V75.6779ZM185.072 81.2419L184.546 82.0922L184.561 82.1014L184.576 82.1102L185.072 81.2419ZM185.54 86.5859C184.115 86.5859 182.783 86.3756 181.54 85.9612L180.908 87.8586C182.369 88.3456 183.915 88.5859 185.54 88.5859V86.5859ZM181.57 85.9716C180.449 85.5586 179.412 84.7959 178.465 83.6281L176.911 84.8877C178.044 86.2853 179.365 87.2905 180.878 87.8483L181.57 85.9716ZM178.465 83.6281C177.591 82.5505 177.128 81.1885 177.128 79.4739H175.128C175.128 81.5726 175.705 83.4 176.911 84.8877L178.465 83.6281ZM177.128 79.4739C177.128 78.1832 177.433 77.1001 178.012 76.1879C178.594 75.2718 179.489 74.4711 180.753 73.8073C183.311 72.4642 187.276 71.7379 192.768 71.7379V69.7379C187.167 69.7379 182.812 70.4676 179.823 72.0365C178.314 72.8287 177.129 73.8481 176.324 75.1159C175.516 76.3877 175.128 77.8526 175.128 79.4739H177.128ZM193.768 70.7379V70.3219H191.768V70.7379H193.768ZM193.768 70.3219C193.768 68.8374 193.218 67.594 192.052 66.7544L190.884 68.3774C191.451 68.7859 191.768 69.3798 191.768 70.3219H193.768ZM192.073 66.7697C190.99 65.9464 189.633 65.5779 188.088 65.5779V67.5779C189.317 67.5779 190.213 67.8681 190.863 68.3621L192.073 66.7697ZM188.088 65.5779C185.452 65.5779 183.083 66.5764 181.012 68.4966L182.372 69.9632C184.114 68.3475 186.01 67.5779 188.088 67.5779V65.5779ZM182.423 68.5479L178.107 63.9199L176.645 65.2839L180.961 69.9119L182.423 68.5479ZM178.062 65.3292C180.945 62.6083 184.54 61.2339 188.92 61.2339V59.2339C184.078 59.2339 179.978 60.7716 176.69 63.8747L178.062 65.3292ZM188.92 61.2339C193.037 61.2339 195.738 62.2887 197.307 64.1537L198.837 62.8661C196.732 60.3632 193.331 59.2339 188.92 59.2339V61.2339ZM197.312 64.1597C198.918 66.039 199.828 69.2127 199.828 73.9099H201.828C201.828 69.0391 200.9 65.2795 198.832 62.8601L197.312 64.1597ZM199.828 73.9099V86.9619H201.828V73.9099H199.828ZM200.828 85.9619H193.028V87.9619H200.828V85.9619ZM194.028 86.9619V84.2059H192.028V86.9619H194.028ZM193.028 83.2059H192.872V85.2059H193.028V83.2059ZM192.015 83.6914C191.515 84.5235 190.701 85.2348 189.489 85.794L190.327 87.6099C191.82 86.9211 192.981 85.9684 193.73 84.7204L192.015 83.6914ZM189.509 85.7852C188.29 86.3165 186.971 86.5859 185.54 86.5859V88.5859C187.23 88.5859 188.822 88.266 190.308 87.6186L189.509 85.7852ZM187.672 82.8659C189.557 82.8659 191.159 82.3417 192.331 81.169L190.917 79.7548C190.218 80.4541 189.184 80.8659 187.672 80.8659V82.8659ZM192.344 81.1561C193.496 79.9615 194.028 78.3929 194.028 76.5619H192.028C192.028 77.9896 191.624 79.021 190.904 79.7678L192.344 81.1561ZM194.028 76.5619V75.6779H192.028V76.5619H194.028ZM193.028 74.6779H191.936V76.6779H193.028V74.6779ZM191.936 74.6779C189.241 74.6779 187.083 74.9726 185.563 75.6481C184.791 75.991 184.138 76.4522 183.677 77.0669C183.207 77.6939 182.98 78.4236 182.98 79.2139H184.98C184.98 78.8256 185.085 78.5239 185.277 78.2669C185.479 77.9976 185.821 77.7221 186.375 77.4757C187.507 76.9725 189.327 76.6779 191.936 76.6779V74.6779ZM182.98 79.2139C182.98 80.4395 183.505 81.4479 184.546 82.0922L185.598 80.3916C185.183 80.1346 184.98 79.791 184.98 79.2139H182.98ZM184.576 82.1102C185.483 82.6282 186.527 82.8659 187.672 82.8659V80.8659C186.806 80.8659 186.118 80.6876 185.568 80.3737L184.576 82.1102ZM207.193 99.4419H206.193V100.442H207.193V99.4419ZM207.193 61.0659V60.0659H206.193V61.0659H207.193ZM215.305 61.0659H216.305V60.0659H215.305V61.0659ZM215.305 64.2379H214.305V65.2379H215.305V64.2379ZM215.461 64.2379V65.2379H215.97L216.27 64.8261L215.461 64.2379ZM218.841 61.4299L218.394 60.5354L218.385 60.5399L218.841 61.4299ZM232.569 64.3419L231.805 64.987L231.814 64.9976L232.569 64.3419ZM232.621 83.6859L231.853 83.0457L231.852 83.0467L232.621 83.6859ZM219.153 86.7539L218.733 87.6612L218.742 87.6655L218.751 87.6696L219.153 86.7539ZM215.825 84.1019L216.637 83.5183L216.338 83.1019H215.825V84.1019ZM215.721 84.1019V83.1019H214.721V84.1019H215.721ZM215.721 99.4419V100.442H216.721V99.4419H215.721ZM226.121 78.6419L226.896 79.274L226.121 78.6419ZM226.121 69.2819L225.346 69.9141L225.355 69.9241L226.121 69.2819ZM217.125 69.3339L216.371 68.6768L216.367 68.6823L216.362 68.688L217.125 69.3339ZM217.125 78.6419L216.362 79.2879L216.371 79.2984L216.38 79.3087L217.125 78.6419ZM208.193 99.4419V61.0659H206.193V99.4419H208.193ZM207.193 62.0659H215.305V60.0659H207.193V62.0659ZM214.305 61.0659V64.2379H216.305V61.0659H214.305ZM215.305 65.2379H215.461V63.2379H215.305V65.2379ZM216.27 64.8261C216.998 63.8245 217.997 62.9857 219.297 62.32L218.385 60.5399C216.843 61.3301 215.588 62.3633 214.652 63.6497L216.27 64.8261ZM219.288 62.3243C220.591 61.673 222.065 61.3379 223.729 61.3379V59.3379C221.788 59.3379 220.003 59.7309 218.394 60.5355L219.288 62.3243ZM223.729 61.3379C227.089 61.3379 229.751 62.5533 231.805 64.987L233.333 63.6969C230.881 60.7918 227.65 59.3379 223.729 59.3379V61.3379ZM231.814 64.9976C233.932 67.4365 235.001 70.3878 235.001 73.9099H237.001C237.001 69.944 235.782 66.5167 233.324 63.6862L231.814 64.9976ZM235.001 73.9099C235.001 77.5103 233.944 80.5369 231.853 83.0457L233.389 84.3261C235.805 81.4269 237.001 77.9362 237.001 73.9099H235.001ZM231.852 83.0467C229.84 85.4677 227.151 86.6899 223.677 86.6899V88.6899C227.692 88.6899 230.965 87.2428 233.39 84.3251L231.852 83.0467ZM223.677 86.6899C222.217 86.6899 220.846 86.4051 219.555 85.8383L218.751 87.6696C220.303 88.3507 221.948 88.6899 223.677 88.6899V86.6899ZM219.574 85.8466C218.285 85.2496 217.32 84.4684 216.637 83.5183L215.013 84.6855C215.925 85.9541 217.178 86.9409 218.733 87.6612L219.574 85.8466ZM215.825 83.1019H215.721V85.1019H215.825V83.1019ZM214.721 84.1019V99.4419H216.721V84.1019H214.721ZM215.721 98.4419H207.193V100.442H215.721V98.4419ZM221.649 81.6179C223.815 81.6179 225.607 80.8544 226.896 79.274L225.346 78.0098C224.486 79.0641 223.297 79.6179 221.649 79.6179V81.6179ZM226.896 79.274C228.128 77.7634 228.733 75.9577 228.733 73.9099H226.733C226.733 75.5368 226.263 76.8858 225.346 78.0098L226.896 79.274ZM228.733 73.9099C228.733 71.8919 228.125 70.1168 226.888 68.6397L225.355 69.9241C226.266 71.0124 226.733 72.3226 226.733 73.9099H228.733ZM226.896 68.6498C225.607 67.0695 223.815 66.3059 221.649 66.3059V68.3059C223.297 68.3059 224.486 68.8597 225.346 69.914L226.896 68.6498ZM221.649 66.3059C219.531 66.3059 217.745 67.1009 216.371 68.6768L217.879 69.991C218.863 68.8629 220.093 68.3059 221.649 68.3059V66.3059ZM216.362 68.688C215.069 70.2162 214.409 71.9865 214.409 73.9619H216.409C216.409 72.4707 216.894 71.1556 217.889 69.9799L216.362 68.688ZM214.409 73.9619C214.409 75.9669 215.065 77.7556 216.362 79.2879L217.889 77.996C216.897 76.8242 216.409 75.4929 216.409 73.9619H214.409ZM216.38 79.3087C217.757 80.8474 219.54 81.6179 221.649 81.6179V79.6179C220.084 79.6179 218.851 79.0711 217.87 77.9751L216.38 79.3087ZM244.853 86.9099L244.507 87.8483L244.522 87.8537L244.537 87.8586L244.853 86.9099ZM256.397 70.7379V71.7379H257.397V70.7379H256.397ZM255.097 67.5659L254.492 68.3621L254.502 68.3699L254.513 68.3774L255.097 67.5659ZM245.321 69.2299L244.59 69.9119L245.27 70.6412L246.001 69.9632L245.321 69.2299ZM241.005 64.6019L240.319 63.8747L239.596 64.557L240.274 65.2839L241.005 64.6019ZM261.701 63.5099L260.936 64.1537L260.941 64.1597L261.701 63.5099ZM264.457 86.9619V87.9619H265.457V86.9619H264.457ZM256.657 86.9619H255.657V87.9619H256.657V86.9619ZM256.657 84.2059H257.657V83.2059H256.657V84.2059ZM256.501 84.2059V83.2059H255.935L255.644 83.6914L256.501 84.2059ZM253.537 86.7019L253.937 87.6186L253.946 87.6143L253.956 87.6099L253.537 86.7019ZM255.253 80.4619L255.96 81.169L255.967 81.1626L255.973 81.1561L255.253 80.4619ZM256.657 75.6779H257.657V74.6779H256.657V75.6779ZM248.701 81.2419L248.175 82.0922L248.19 82.1014L248.205 82.1102L248.701 81.2419ZM249.169 86.5859C247.744 86.5859 246.412 86.3756 245.169 85.9612L244.537 87.8586C245.998 88.3456 247.544 88.5859 249.169 88.5859V86.5859ZM245.199 85.9716C244.078 85.5586 243.041 84.7959 242.094 83.6281L240.54 84.8877C241.673 86.2853 242.993 87.2905 244.507 87.8483L245.199 85.9716ZM242.094 83.6281C241.22 82.5505 240.757 81.1885 240.757 79.4739H238.757C238.757 81.5726 239.334 83.4 240.54 84.8877L242.094 83.6281ZM240.757 79.4739C240.757 78.1832 241.062 77.1001 241.641 76.1879C242.223 75.2718 243.117 74.4711 244.382 73.8073C246.94 72.4642 250.905 71.7379 256.397 71.7379V69.7379C250.795 69.7379 246.441 70.4676 243.452 72.0365C241.943 72.8287 240.758 73.8481 239.953 75.1159C239.145 76.3877 238.757 77.8526 238.757 79.4739H240.757ZM257.397 70.7379V70.3219H255.397V70.7379H257.397ZM257.397 70.3219C257.397 68.8374 256.847 67.594 255.681 66.7544L254.513 68.3774C255.08 68.7859 255.397 69.3798 255.397 70.3219H257.397ZM255.702 66.7697C254.619 65.9464 253.262 65.5779 251.717 65.5779V67.5779C252.946 67.5779 253.842 67.8681 254.492 68.3621L255.702 66.7697ZM251.717 65.5779C249.081 65.5779 246.712 66.5764 244.641 68.4966L246.001 69.9632C247.743 68.3475 249.639 67.5779 251.717 67.5779V65.5779ZM246.052 68.5479L241.736 63.9199L240.274 65.2839L244.59 69.9119L246.052 68.5479ZM241.691 65.3292C244.574 62.6083 248.169 61.2339 252.549 61.2339V59.2339C247.707 59.2339 243.606 60.7716 240.319 63.8747L241.691 65.3292ZM252.549 61.2339C256.666 61.2339 259.367 62.2887 260.936 64.1537L262.466 62.8661C260.361 60.3632 256.96 59.2339 252.549 59.2339V61.2339ZM260.941 64.1597C262.547 66.039 263.457 69.2127 263.457 73.9099H265.457C265.457 69.0391 264.529 65.2795 262.461 62.8601L260.941 64.1597ZM263.457 73.9099V86.9619H265.457V73.9099H263.457ZM264.457 85.9619H256.657V87.9619H264.457V85.9619ZM257.657 86.9619V84.2059H255.657V86.9619H257.657ZM256.657 83.2059H256.501V85.2059H256.657V83.2059ZM255.644 83.6914C255.144 84.5235 254.33 85.2348 253.118 85.794L253.956 87.6099C255.448 86.9211 256.61 85.9684 257.359 84.7204L255.644 83.6914ZM253.137 85.7852C251.919 86.3165 250.6 86.5859 249.169 86.5859V88.5859C250.858 88.5859 252.451 88.266 253.937 87.6186L253.137 85.7852ZM251.301 82.8659C253.186 82.8659 254.787 82.3417 255.96 81.169L254.546 79.7548C253.847 80.4541 252.813 80.8659 251.301 80.8659V82.8659ZM255.973 81.1561C257.125 79.9615 257.657 78.3929 257.657 76.5619H255.657C255.657 77.9896 255.253 79.021 254.533 79.7678L255.973 81.1561ZM257.657 76.5619V75.6779H255.657V76.5619H257.657ZM256.657 74.6779H255.565V76.6779H256.657V74.6779ZM255.565 74.6779C252.87 74.6779 250.712 74.9726 249.192 75.6481C248.42 75.991 247.767 76.4522 247.306 77.0669C246.836 77.6939 246.609 78.4236 246.609 79.2139H248.609C248.609 78.8256 248.714 78.5239 248.906 78.2669C249.108 77.9976 249.45 77.7221 250.004 77.4757C251.136 76.9725 252.956 76.6779 255.565 76.6779V74.6779ZM246.609 79.2139C246.609 80.4395 247.134 81.4479 248.175 82.0922L249.227 80.3916C248.812 80.1346 248.609 79.791 248.609 79.2139H246.609ZM248.205 82.1102C249.111 82.6282 250.156 82.8659 251.301 82.8659V80.8659C250.435 80.8659 249.747 80.6876 249.197 80.3737L248.205 82.1102ZM276.282 86.9619H275.282V87.9619H276.282V86.9619ZM276.282 67.6179H277.282V66.6179H276.282V67.6179ZM268.534 67.6179H267.534V68.6179H268.534V67.6179ZM268.534 61.0659V60.0659H267.534V61.0659H268.534ZM292.61 61.0659H293.61V60.0659H292.61V61.0659ZM292.61 67.6179V68.6179H293.61V67.6179H292.61ZM284.862 67.6179V66.6179H283.862V67.6179H284.862ZM284.862 86.9619V87.9619H285.862V86.9619H284.862ZM277.282 86.9619V67.6179H275.282V86.9619H277.282ZM276.282 66.6179H268.534V68.6179H276.282V66.6179ZM269.534 67.6179V61.0659H267.534V67.6179H269.534ZM268.534 62.0659H292.61V60.0659H268.534V62.0659ZM291.61 61.0659V67.6179H293.61V61.0659H291.61ZM292.61 66.6179H284.862V68.6179H292.61V66.6179ZM283.862 67.6179V86.9619H285.862V67.6179H283.862ZM284.862 85.9619H276.282V87.9619H284.862V85.9619ZM334.83 82.8539L334.04 82.242L334.038 82.2442L334.83 82.8539ZM329.682 86.7539L329.319 85.8222L329.682 86.7539ZM313.718 85.5059L313.197 86.3595L313.718 85.5059ZM308.31 78.1739L308.056 77.2068L307.067 77.4668L307.349 78.45L308.31 78.1739ZM316.422 76.0419L317.388 75.781L317.129 74.8223L316.168 75.0748L316.422 76.0419ZM318.606 79.3179L317.976 80.094L317.983 80.1001L317.991 80.1059L318.606 79.3179ZM326.406 79.4739L326.985 80.2894L326.406 79.4739ZM325.834 72.2459L325.362 73.1271L325.374 73.1339L325.387 73.1403L325.834 72.2459ZM318.19 71.1019H317.19V72.1019H318.19V71.1019ZM318.19 64.7059V63.7059H317.19V64.7059H318.19ZM325.834 57.3739L325.206 58.1519L325.834 57.3739ZM319.282 57.4259L319.911 58.2039L319.914 58.2011L319.282 57.4259ZM317.514 60.3899L317.29 61.3643L318.272 61.591L318.491 60.6068L317.514 60.3899ZM309.402 58.5179L308.442 58.2388L308.147 59.2545L309.178 59.4923L309.402 58.5179ZM314.498 51.6019L315.04 52.4427L314.498 51.6019ZM332.23 51.8619L331.65 52.6764L331.656 52.6801L332.23 51.8619ZM334.362 64.7059L335.142 65.333L335.149 65.3237L334.362 64.7059ZM329.89 67.5659L329.635 66.5991L328.89 66.7958V67.5659H329.89ZM329.89 67.7219H328.89V68.5154L329.663 68.6958L329.89 67.7219ZM334.986 70.8419L334.215 71.4788L334.222 71.4871L334.986 70.8419ZM335.962 76.2499C335.962 78.6182 335.311 80.5983 334.04 82.242L335.621 83.4658C337.193 81.4349 337.962 79.0123 337.962 76.2499H335.962ZM334.038 82.2442C332.758 83.9079 331.189 85.0935 329.319 85.8222L330.046 87.6856C332.267 86.8196 334.13 85.4053 335.623 83.4636L334.038 82.2442ZM329.319 85.8222C327.398 86.5712 325.321 86.9499 323.078 86.9499V88.9499C325.551 88.9499 327.876 88.5313 330.046 87.6856L329.319 85.8222ZM323.078 86.9499C319.665 86.9499 316.731 86.1729 314.239 84.6524L313.197 86.3595C316.045 88.0976 319.351 88.9499 323.078 88.9499V86.9499ZM314.239 84.6524C311.803 83.1651 310.145 80.9377 309.272 77.8978L307.349 78.45C308.348 81.9274 310.295 84.5881 313.197 86.3595L314.239 84.6524ZM308.565 79.1411L316.677 77.0091L316.168 75.0748L308.056 77.2068L308.565 79.1411ZM315.457 76.3028C315.863 77.8037 316.717 79.0709 317.976 80.094L319.237 78.5418C318.278 77.7622 317.676 76.8454 317.388 75.781L315.457 76.3028ZM317.991 80.1059C319.299 81.128 320.876 81.6179 322.662 81.6179V79.6179C321.26 79.6179 320.133 79.2412 319.222 78.5299L317.991 80.1059ZM322.662 81.6179C324.274 81.6179 325.728 81.1817 326.985 80.2894L325.828 78.6584C324.936 79.2915 323.894 79.6179 322.662 79.6179V81.6179ZM326.985 80.2894C328.381 79.2986 329.018 77.7795 329.018 75.9379H327.018C327.018 77.2857 326.581 78.1238 325.828 78.6584L326.985 80.2894ZM329.018 75.9379C329.018 74.9301 328.806 74.005 328.333 73.2058C327.858 72.4029 327.157 71.7892 326.282 71.3515L325.387 73.1403C325.968 73.4306 326.359 73.7963 326.612 74.2241C326.867 74.6555 327.018 75.2124 327.018 75.9379H329.018ZM326.307 71.3648C324.702 70.5036 322.761 70.1019 320.53 70.1019V72.1019C322.53 72.1019 324.124 72.4629 325.362 73.1271L326.307 71.3648ZM320.53 70.1019H318.19V72.1019H320.53V70.1019ZM319.19 71.1019V64.7059H317.19V71.1019H319.19ZM318.19 65.7059H320.738V63.7059H318.19V65.7059ZM320.738 65.7059C322.969 65.7059 324.819 65.3338 326.135 64.4418C327.522 63.5028 328.186 62.0784 328.186 60.3379H326.186C326.186 61.5094 325.777 62.269 325.014 62.786C324.181 63.35 322.806 63.7059 320.738 63.7059V65.7059ZM328.186 60.3379C328.186 58.8145 327.619 57.53 326.463 56.596L325.206 58.1519C325.852 58.6738 326.186 59.3654 326.186 60.3379H328.186ZM326.463 56.596C325.364 55.7087 324.044 55.2819 322.558 55.2819V57.2819C323.639 57.2819 324.502 57.5831 325.206 58.1519L326.463 56.596ZM322.558 55.2819C321.089 55.2819 319.772 55.7374 318.651 56.6507L319.914 58.2011C320.665 57.5891 321.532 57.2819 322.558 57.2819V55.2819ZM318.654 56.648C317.558 57.5331 316.859 58.7283 316.538 60.173L318.491 60.6068C318.724 59.5555 319.204 58.7747 319.911 58.2039L318.654 56.648ZM317.739 59.4155L309.627 57.5435L309.178 59.4923L317.29 61.3643L317.739 59.4155ZM310.363 58.7971C311.164 56.0393 312.719 53.937 315.04 52.4427L313.957 50.7611C311.217 52.5255 309.374 55.0338 308.442 58.2388L310.363 58.7971ZM315.04 52.4427C317.397 50.9248 320.084 50.1579 323.13 50.1579V48.1579C319.729 48.1579 316.661 49.0204 313.957 50.7611L315.04 52.4427ZM323.13 50.1579C326.488 50.1579 329.312 51.0106 331.65 52.6764L332.811 51.0474C330.088 49.1079 326.845 48.1579 323.13 48.1579V50.1579ZM331.656 52.6801C333.936 54.2824 335.078 56.532 335.078 59.5579H337.078C337.078 55.9278 335.656 53.0468 332.805 51.0437L331.656 52.6801ZM335.078 59.5579C335.078 61.326 334.572 62.8205 333.576 64.0881L335.149 65.3237C336.441 63.6793 337.078 61.7419 337.078 59.5579H335.078ZM333.583 64.0789C332.579 65.3268 331.275 66.1658 329.635 66.5991L330.146 68.5327C332.18 67.9953 333.858 66.9277 335.142 65.3329L333.583 64.0789ZM328.89 67.5659V67.7219H330.89V67.5659H328.89ZM329.663 68.6958C331.537 69.1331 333.042 70.0588 334.216 71.4788L335.757 70.205C334.296 68.4357 332.403 67.2814 330.118 66.7481L329.663 68.6958ZM334.222 71.4871C335.387 72.8663 335.962 74.4403 335.962 76.2499H337.962C337.962 73.9688 337.221 71.9375 335.751 70.1967L334.222 71.4871Z" fill="url(#paint2_linear)"/>
<defs>
<linearGradient id="paint0_linear" x1="8.88477" y1="8.96191" x2="8.88477" y2="128.962" gradientUnits="userSpaceOnUse">
<stop stop-color="#FFB903"/>
<stop offset="1" stop-color="#FFCA01"/>
</linearGradient>
<linearGradient id="paint1_linear" x1="8.88477" y1="8.96191" x2="8.88477" y2="127.871" gradientUnits="userSpaceOnUse">
<stop stop-color="#FFB903"/>
<stop offset="1" stop-color="#FFCA01"/>
</linearGradient>
<linearGradient id="paint2_linear" x1="8.88477" y1="8.96191" x2="8.88477" y2="127.871" gradientUnits="userSpaceOnUse">
<stop stop-color="#FFB903"/>
<stop offset="1" stop-color="#FFCA01"/>
</linearGradient>
</defs>
</svg>
