<svg width="377" height="137" viewBox="0 0 377 137" fill="none" xmlns="http://www.w3.org/2000/svg">
<rect x="4.88477" y="4.96191" width="368" height="128" stroke="#8049C7" stroke-width="8" stroke-linejoin="round"/>
<path d="M41.3019 86.9619L41.3019 50.1459L73.2299 50.1459V86.9619H64.3379V57.6859H50.1939L50.1939 86.9619H41.3019ZM80.3417 99.4419V61.0659H88.4537V64.2379H88.6097C89.4417 63.0939 90.5683 62.1579 91.9897 61.4299C93.4457 60.7019 95.075 60.3379 96.8777 60.3379C100.518 60.3379 103.464 61.6726 105.718 64.3419C108.006 66.9766 109.15 70.1659 109.15 73.9099C109.15 77.7232 108.023 80.9819 105.77 83.6859C103.551 86.3552 100.57 87.6899 96.8257 87.6899C95.231 87.6899 93.723 87.3779 92.3017 86.7539C90.8803 86.0952 89.771 85.2112 88.9737 84.1019H88.8697V99.4419H80.3417ZM94.7977 80.6179C96.7043 80.6179 98.195 79.9592 99.2697 78.6419C100.344 77.3246 100.882 75.7472 100.882 73.9099C100.882 72.1072 100.344 70.5646 99.2697 69.2819C98.195 67.9646 96.7043 67.3059 94.7977 67.3059C92.9603 67.3059 91.4523 67.9819 90.2737 69.3339C89.1297 70.6859 88.5577 72.2286 88.5577 73.9619C88.5577 75.7299 89.1297 77.2899 90.2737 78.6419C91.4523 79.9592 92.9603 80.6179 94.7977 80.6179ZM127.465 87.7939C123.409 87.7939 120.012 86.5806 117.273 84.1539C114.569 81.6926 113.217 78.3472 113.217 74.1179C113.217 69.9579 114.535 66.6126 117.169 64.0819C119.839 61.5166 123.184 60.2339 127.205 60.2339C131.088 60.2339 134.225 61.4992 136.617 64.0299C139.009 66.5259 140.205 69.9579 140.205 74.3259C140.205 75.2619 140.188 75.9379 140.153 76.3539L121.381 76.3539C121.52 77.7406 122.196 78.9019 123.409 79.8379C124.623 80.7739 126.009 81.2419 127.569 81.2419C130.065 81.2419 131.972 80.3406 133.289 78.5379L139.217 82.2819C136.687 85.9566 132.769 87.7939 127.465 87.7939ZM121.381 71.0499H132.353C132.353 69.6286 131.903 68.4499 131.001 67.5139C130.135 66.5779 128.887 66.1099 127.257 66.1099C125.663 66.1099 124.311 66.5952 123.201 67.5659C122.092 68.5366 121.485 69.6979 121.381 71.0499ZM145.494 86.9619V61.0659H171.078V86.9619H162.498V67.6179H154.074V86.9619H145.494ZM185.54 87.5859C184.015 87.5859 182.576 87.3606 181.224 86.9099C179.907 86.4246 178.728 85.5406 177.688 84.2579C176.648 82.9752 176.128 81.3806 176.128 79.4739C176.128 73.6499 181.675 70.7379 192.768 70.7379V70.3219C192.768 69.1086 192.335 68.1899 191.468 67.5659C190.601 66.9072 189.475 66.5779 188.088 66.5779C185.731 66.5779 183.599 67.4619 181.692 69.2299L177.376 64.6019C180.461 61.6899 184.309 60.2339 188.92 60.2339C193.184 60.2339 196.235 61.3259 198.072 63.5099C199.909 65.6592 200.828 69.1259 200.828 73.9099V86.9619H193.028V84.2059H192.872C192.248 85.2459 191.26 86.0779 189.908 86.7019C188.556 87.2912 187.1 87.5859 185.54 87.5859ZM187.672 81.8659C189.371 81.8659 190.688 81.3979 191.624 80.4619C192.56 79.4912 193.028 78.1912 193.028 76.5619V75.6779H191.936C186.632 75.6779 183.98 76.8566 183.98 79.2139C183.98 80.1152 184.344 80.7912 185.072 81.2419C185.8 81.6579 186.667 81.8659 187.672 81.8659ZM207.193 99.4419V61.0659H215.305V64.2379H215.461C216.293 63.0939 217.42 62.1579 218.841 61.4299C220.297 60.7019 221.927 60.3379 223.729 60.3379C227.369 60.3379 230.316 61.6726 232.569 64.3419C234.857 66.9766 236.001 70.1659 236.001 73.9099C236.001 77.7232 234.875 80.9819 232.621 83.6859C230.403 86.3552 227.421 87.6899 223.677 87.6899C222.083 87.6899 220.575 87.3779 219.153 86.7539C217.732 86.0952 216.623 85.2112 215.825 84.1019H215.721V99.4419H207.193ZM221.649 80.6179C223.556 80.6179 225.047 79.9592 226.121 78.6419C227.196 77.3246 227.733 75.7472 227.733 73.9099C227.733 72.1072 227.196 70.5646 226.121 69.2819C225.047 67.9646 223.556 67.3059 221.649 67.3059C219.812 67.3059 218.304 67.9819 217.125 69.3339C215.981 70.6859 215.409 72.2286 215.409 73.9619C215.409 75.7299 215.981 77.2899 217.125 78.6419C218.304 79.9592 219.812 80.6179 221.649 80.6179ZM249.169 87.5859C247.644 87.5859 246.205 87.3606 244.853 86.9099C243.536 86.4246 242.357 85.5406 241.317 84.2579C240.277 82.9752 239.757 81.3806 239.757 79.4739C239.757 73.6499 245.304 70.7379 256.397 70.7379V70.3219C256.397 69.1086 255.964 68.1899 255.097 67.5659C254.23 66.9072 253.104 66.5779 251.717 66.5779C249.36 66.5779 247.228 67.4619 245.321 69.2299L241.005 64.6019C244.09 61.6899 247.938 60.2339 252.549 60.2339C256.813 60.2339 259.864 61.3259 261.701 63.5099C263.538 65.6592 264.457 69.1259 264.457 73.9099V86.9619H256.657V84.2059H256.501C255.877 85.2459 254.889 86.0779 253.537 86.7019C252.185 87.2912 250.729 87.5859 249.169 87.5859ZM251.301 81.8659C253 81.8659 254.317 81.3979 255.253 80.4619C256.189 79.4912 256.657 78.1912 256.657 76.5619V75.6779H255.565C250.261 75.6779 247.609 76.8566 247.609 79.2139C247.609 80.1152 247.973 80.7912 248.701 81.2419C249.429 81.6579 250.296 81.8659 251.301 81.8659ZM276.282 86.9619V67.6179H268.534V61.0659H292.61V67.6179H284.862V86.9619H276.282ZM330.098 86.9619H321.362V59.9219L314.498 65.2259L309.974 59.0379L322.09 50.1459L330.098 50.1459V86.9619Z" fill="#8049C7"/>
</svg>
