<?xml version="1.0" encoding="utf-8"?>
<!-- Generator: Adobe Illustrator 24.1.2, SVG Export Plug-In . SVG Version: 6.00 Build 0)  -->
<svg version="1.1" id="Слой_1" xmlns="http://www.w3.org/2000/svg" xmlns:xlink="http://www.w3.org/1999/xlink" x="0px" y="0px"
	 viewBox="0 0 238 226.4" style="enable-background:new 0 0 238 226.4;" xml:space="preserve">
<style type="text/css">
	.st0{fill:#FFABB1;}
</style>
<g>
	<g>
		<path class="st0" d="M37,123.5c-5.7,0-10.3-4.6-10.3-10.3c0-50.9,41.1-92.3,91.5-92.3c34.8,0,66.1,19.5,81.8,50.8
			c2.5,5.1,0.5,11.2-4.6,13.8c-5.1,2.5-11.2,0.5-13.8-4.6c-12.2-24.3-36.5-39.5-63.4-39.5c-39.2,0-71,32.2-71,71.8
			C47.2,118.9,42.6,123.5,37,123.5z"/>
	</g>
</g>
<g>
	<g>
		<path class="st0" d="M117.1,205.5c-35.7,0-68-19.4-84.1-50.7c-2.6-5-0.6-11.2,4.4-13.8c5-2.6,11.2-0.6,13.8,4.4
			c12.6,24.4,37.9,39.6,65.9,39.6c40.6,0,73.7-32.2,73.7-71.8c0-5.7,4.6-10.3,10.3-10.3c5.7,0,10.3,4.6,10.3,10.3
			C211.3,164.1,169,205.5,117.1,205.5z"/>
	</g>
</g>
<g>
	<g>
		<path class="st0" d="M33.9,131L4.6,105.6c-4.3-3.7-4.7-10.2-1-14.5c3.7-4.3,10.2-4.7,14.5-1l18.1,15.7l21.2-12.6
			c4.9-2.9,11.2-1.3,14.1,3.6c2.9,4.9,1.3,11.2-3.6,14.1L33.9,131z"/>
	</g>
</g>
<g>
	<g>
		<path class="st0" d="M226.7,133.7c-2.4,0-4.8-0.8-6.7-2.5l-18.1-15.7l-21.3,12.6c-4.9,2.9-11.2,1.3-14.1-3.6
			c-2.9-4.9-1.3-11.2,3.6-14.1l34-20.2l29.3,25.4c4.3,3.7,4.7,10.2,1,14.5C232.4,132.5,229.5,133.7,226.7,133.7z"/>
	</g>
</g>
</svg>
